<svg width="16" height="16" viewBox="0 0 16 16" fill="none" xmlns="http://www.w3.org/2000/svg">
<path fill-rule="evenodd" clip-rule="evenodd" d="M3.2 1.77778C3.2 0.795938 3.91634 0 4.8 0H11.2C12.0837 0 12.8 0.795938 12.8 1.77778V2.66667H3.2V1.77778ZM1.6 5.77778C1.6 4.79594 2.31634 4 3.2 4H12.8C13.6837 4 14.4 4.79594 14.4 5.77778V6.66667H1.6V5.77778ZM0 9.77778C0 8.79591 0.716344 8 1.6 8H14.4C15.2837 8 16 8.79591 16 9.77778V12.4444C16 14.4081 14.5673 16 12.8 16H3.2C1.43269 16 0 14.4081 0 12.4444V9.77778ZM5.8 10.6667C5.8 10.2985 6.06863 10 6.4 10H9.6C9.93136 10 10.2 10.2985 10.2 10.6667C10.2 11.0348 9.93136 11.3333 9.6 11.3333H6.4C6.06863 11.3333 5.8 11.0348 5.8 10.6667Z" fill="currentColor"/>
</svg>
