<svg width="16" height="14" viewBox="0 0 16 14" fill="none" xmlns="http://www.w3.org/2000/svg">
<path d="M9.65531 2.57862C10.3951 3.04247 10.9139 3.82739 11.0083 4.73851C11.31 4.87948 11.6449 4.96055 11.9999 4.96055C13.296 4.96055 14.3465 3.91006 14.3465 2.61417C14.3465 1.31807 13.296 0.267578 11.9999 0.267578C10.7162 0.267977 9.67488 1.2997 9.65531 2.57862ZM8.11801 7.38322C9.4141 7.38322 10.4646 6.33252 10.4646 5.03663C10.4646 3.74073 9.4139 2.69024 8.11801 2.69024C6.82211 2.69024 5.77102 3.74093 5.77102 5.03683C5.77102 6.33272 6.82211 7.38322 8.11801 7.38322ZM9.11339 7.54316H7.12223C5.46552 7.54316 4.11771 8.89116 4.11771 10.5479V12.9829L4.1239 13.0211L4.29163 13.0736C5.87266 13.5676 7.24622 13.7323 8.37679 13.7323C10.585 13.7323 11.8649 13.1027 11.9438 13.0626L12.1005 12.9833H12.1173V10.5479C12.1179 8.89116 10.7701 7.54316 9.11339 7.54316ZM12.9957 5.12069H11.0199C10.9985 5.91121 10.6611 6.62305 10.1273 7.13502C11.6 7.57291 12.6774 8.93849 12.6774 10.5515V11.3018C14.6282 11.2304 15.7524 10.6775 15.8265 10.6403L15.9832 10.5609H16V8.12501C16 6.4685 14.6522 5.12069 12.9957 5.12069ZM4.0005 4.96095C4.45955 4.96095 4.88666 4.82697 5.24847 4.59874C5.36348 3.84856 5.76563 3.19302 6.3401 2.74655C6.34249 2.70262 6.34669 2.65909 6.34669 2.61476C6.34669 1.31867 5.29599 0.268177 4.0005 0.268177C2.70421 0.268177 1.65391 1.31867 1.65391 2.61476C1.65391 3.91026 2.70421 4.96095 4.0005 4.96095ZM6.10787 7.13502C5.57674 6.62565 5.24048 5.9176 5.21592 5.13187C5.14264 5.12648 5.07016 5.12069 4.99548 5.12069H3.00452C1.34781 5.12069 0 6.4685 0 8.12501V10.5605L0.00618994 10.598L0.173917 10.6509C1.44226 11.0469 2.57422 11.2294 3.55742 11.2869V10.5515C3.55782 8.93849 4.63487 7.57331 6.10787 7.13502Z" fill="currentColor"/>
</svg>
