<svg width="17" height="17" viewBox="0 0 17 17" fill="none" xmlns="http://www.w3.org/2000/svg">
<path d="M7.68923 0C11.9359 0 15.3785 3.36655 15.3785 7.51941C15.3785 9.47924 14.6118 11.264 13.3557 12.6024L15.826 15.0109C15.8442 15.0287 16.3097 15.5 16.3251 15.5194C16.5049 15.7463 16.5378 16.0263 16.3251 16.2349C16.1151 16.4408 15.732 16.4987 15.5 16.3308L14.9896 15.8309L12.4902 13.3934C11.1745 14.4231 9.50541 15.0388 7.68923 15.0388C3.44259 15.0388 0 11.6723 0 7.51941C0 3.36655 3.44259 0 7.68923 0ZM7.68923 1.15819C4.09668 1.15819 1.18435 4.00621 1.18435 7.51941C1.18435 11.0326 4.09668 13.8806 7.68923 13.8806C11.2818 13.8806 14.1941 11.0326 14.1941 7.51941C14.1941 4.00621 11.2818 1.15819 7.68923 1.15819Z" fill="#9799A0"/>
</svg>
